<svg xmlns="http://www.w3.org/2000/svg" version="1.1" xmlns:xlink="http://www.w3.org/1999/xlink" xmlns:svgjs="http://svgjs.dev/svgjs" width="128" height="128" viewBox="0 0 128 128"><g transform="matrix(0.5255102040816326,0,0,0.5255102040816326,30.345436190452226,12.760752631578946)"><svg viewBox="0 0 62 95" data-background-color="#ffffff" preserveAspectRatio="xMidYMid meet" height="196" width="128" xmlns="http://www.w3.org/2000/svg" xmlns:xlink="http://www.w3.org/1999/xlink"><g id="tight-bounds" transform="matrix(1,0,0,1,0.020195647271279427,-0.24049999999999727)"><svg viewBox="0 0 61.95960870545745 95.481" height="95.481" width="61.95960870545745"><g><svg viewBox="0 0 61.95960870545745 95.481" height="95.481" width="61.95960870545745"><g><svg viewBox="0 0 61.95960870545745 95.481" height="95.481" width="61.95960870545745"><g id="textblocktransform"><svg viewBox="0 0 61.95960870545745 95.481" height="95.481" width="61.95960870545745" id="textblock"><g><svg viewBox="0 0 61.95960870545745 95.481" height="95.481" width="61.95960870545745"><g><svg viewBox="0 0 61.95960870545745 95.481" height="95.481" width="61.95960870545745"><g><svg xmlns="http://www.w3.org/2000/svg" xmlns:xlink="http://www.w3.org/1999/xlink" version="1.1" x="0" y="0" viewBox="19 2.9977762660242986 61 94.0022237339757" enable-background="new 0 0 99 99" xml:space="preserve" height="95.481" width="61.95960870545745" class="icon-icon-0" data-fill-palette-color="accent" id="icon-0"><path fill-rule="evenodd" clip-rule="evenodd" d="M26.49 27.36c-3.74 0-7.49 2.5-7.49 6.18v57.08c0 3.69 4.06 6.38 7.79 6.38h46.55c3.73 0 6.66-2.7 6.66-6.38V33.55c0-3.68-3.23-6.19-6.971-6.19L50.58 27.37l4.84 19.93c0 0-4.84 12.3-4.72 12.479 0.12 0.191-10.96-7.67-10.96-7.67L33.08 27.37 26.49 27.36zM32.02 13.63l9.11 33.56 11.33-3-9.11-33.56L32.02 13.63zM35.26 3.18c-1.88 0.5-5.26 3-4.76 4.85l0.89 3.51 11.33-3-0.89-3.5C41.33 3.18 37.14 2.68 35.26 3.18zM41.74 49.42l8.06 6.79 3.271-9.78L41.74 49.42z" fill="#111111" data-fill-palette-color="accent"></path></svg></g></svg></g></svg></g></svg></g></svg></g><g></g></svg></g><defs></defs></svg><rect width="61.95960870545745" height="95.481" fill="none" stroke="none" visibility="hidden"></rect></g></svg></g></svg>