<svg xmlns="http://www.w3.org/2000/svg" version="1.1" xmlns:xlink="http://www.w3.org/1999/xlink" xmlns:svgjs="http://svgjs.dev/svgjs" width="2000" height="1500" viewBox="0 0 2000 1500"><rect width="2000" height="1500" fill="#ffffff"></rect><g transform="matrix(0.75,0,0,0.75,249.090909090909,624.3436925870009)"><svg viewBox="0 0 396 66" data-background-color="#ffffff" preserveAspectRatio="xMidYMid meet" height="333" width="2000" xmlns="http://www.w3.org/2000/svg" xmlns:xlink="http://www.w3.org/1999/xlink"><g id="tight-bounds" transform="matrix(1,0,0,1,0.2400000000000091,0.206471628660438)"><svg viewBox="0 0 395.52 65.58705674267914" height="65.58705674267914" width="395.52"><g><svg viewBox="0 0 496.6308638945286 82.35375366711217" height="65.58705674267914" width="395.52"><g transform="matrix(1,0,0,1,101.11086389452862,1.450029912614383)"><svg viewBox="0 0 395.52 79.4536938418834" height="79.4536938418834" width="395.52"><g id="textblocktransform"><svg viewBox="0 0 395.52 79.4536938418834" height="79.4536938418834" width="395.52" id="textblock"><g><svg viewBox="0 0 395.52 79.4536938418834" height="79.4536938418834" width="395.52"><g transform="matrix(1,0,0,1,0,0)"><svg width="395.52" viewBox="1.2 -37.7 237.45000000000002 47.71" height="79.4536938418834" data-palette-color="url(#fb5e59bb-6363-4689-8881-f386b6d98c81)"></svg></g></svg></g></svg></g></svg></g><g><svg viewBox="0 0 82.35375366711216 82.35375366711217" height="82.35375366711217" width="82.35375366711216"><g><svg></svg></g><g id="icon-0"><svg viewBox="0 0 82.35375366711216 82.35375366711217" height="82.35375366711217" width="82.35375366711216"><g></g><g transform="matrix(1,0,0,1,25.14455725382848,16.47075073342243)"><svg viewBox="0 0 32.0646391594552 49.41225220026731" height="49.41225220026731" width="32.0646391594552"><g><svg xmlns="http://www.w3.org/2000/svg" xmlns:xlink="http://www.w3.org/1999/xlink" version="1.1" x="0" y="0" viewBox="19 2.9977762660242986 61 94.0022237339757" enable-background="new 0 0 99 99" xml:space="preserve" height="49.41225220026731" width="32.0646391594552" class="icon-z$-0" data-fill-palette-color="quaternary" id="z$-0"></svg></g></svg></g></svg></g></svg></g></svg></g><defs></defs><mask id="dc70392d-452d-4ea5-ac93-2729b68e9d6d"><g id="SvgjsG1340"><svg viewBox="0 0 395.52 65.58705674267914" height="65.58705674267914" width="395.52"><g><svg viewBox="0 0 496.6308638945286 82.35375366711217" height="65.58705674267914" width="395.52"><g transform="matrix(1,0,0,1,101.11086389452862,1.450029912614383)"><svg viewBox="0 0 395.52 79.4536938418834" height="79.4536938418834" width="395.52"><g id="SvgjsG1339"><svg viewBox="0 0 395.52 79.4536938418834" height="79.4536938418834" width="395.52" id="SvgjsSvg1338"><g><svg viewBox="0 0 395.52 79.4536938418834" height="79.4536938418834" width="395.52"><g transform="matrix(1,0,0,1,0,0)"><svg width="395.52" viewBox="1.2 -37.7 237.45000000000002 47.71" height="79.4536938418834" data-palette-color="url(#fb5e59bb-6363-4689-8881-f386b6d98c81)"><path d="M1.2-24.51L1.2-24.51Q1.2-26.68 2.03-28.59 2.86-30.49 4.28-31.92 5.71-33.35 7.62-34.18 9.52-35.01 11.69-35.01L11.69-35.01 27.76-35.01 27.76-28 11.69-28Q10.96-28 10.33-27.73 9.69-27.47 9.22-26.99 8.74-26.51 8.47-25.88 8.2-25.24 8.2-24.51L8.2-24.51Q8.2-23.78 8.47-23.13 8.74-22.49 9.22-22.01 9.69-21.53 10.33-21.26 10.96-21 11.69-21L11.69-21 18.7-21Q20.87-21 22.79-20.18 24.71-19.36 26.14-17.93 27.56-16.5 28.38-14.59 29.2-12.67 29.2-10.5L29.2-10.5Q29.2-8.33 28.38-6.42 27.56-4.52 26.14-3.09 24.71-1.66 22.79-0.83 20.87 0 18.7 0L18.7 0 3.15 0 3.15-7.01 18.7-7.01Q19.43-7.01 20.07-7.28 20.7-7.54 21.18-8.02 21.66-8.5 21.92-9.13 22.19-9.77 22.19-10.5L22.19-10.5Q22.19-11.23 21.92-11.87 21.66-12.5 21.18-12.98 20.7-13.45 20.07-13.72 19.43-13.99 18.7-13.99L18.7-13.99 11.69-13.99Q9.52-13.99 7.62-14.82 5.71-15.65 4.28-17.08 2.86-18.51 2.03-20.42 1.2-22.34 1.2-24.51ZM50.8 0L45.75 0Q43.33 0 41.21-0.92 39.08-1.83 37.49-3.43 35.89-5.03 34.97-7.15 34.06-9.28 34.06-11.69L34.06-11.69 34.06-19.46 30.81-19.46 30.81-26.1 34.06-26.1 34.06-36.55 40.7-36.55 40.7-26.1 50.8-26.1 50.8-19.46 40.7-19.46 40.7-11.69Q40.7-10.64 41.09-9.73 41.48-8.81 42.16-8.13 42.84-7.45 43.77-7.04 44.7-6.64 45.75-6.64L45.75-6.64 50.8-6.64 50.8 0ZM64.25 10.01L60.83 9.96 60.83 3.25 64.55 3.3Q65.52 3.3 66.43 2.98 67.33 2.66 68.1 2.1 68.87 1.54 69.45 0.77 70.04 0 70.41-0.9L70.41-0.9Q69.31-0.44 68.17 0.02 67.04 0.49 65.89 0.49L65.89 0.49Q63.47 0.49 61.35-0.37 59.22-1.22 57.62-2.8 56.03-4.37 55.11-6.63 54.19-8.89 54.19-11.69L54.19-11.69 54.19-26.15 60.83-26.15 60.83-11.69Q60.83-10.3 61.24-9.27 61.64-8.23 62.32-7.53 63.01-6.84 63.92-6.49 64.84-6.15 65.89-6.15L65.89-6.15Q66.91-6.15 67.83-6.63 68.75-7.1 69.43-7.89 70.11-8.67 70.5-9.66 70.89-10.64 70.89-11.69L70.89-11.69 70.89-26.15 77.61-26.15 77.61-3.3Q77.58-0.54 76.53 1.88 75.48 4.3 73.66 6.1 71.85 7.91 69.43 8.96 67.01 10.01 64.25 10.01L64.25 10.01ZM89.4-36.55L89.4 0 82.68 0 82.68-36.55 89.4-36.55ZM117.37-21.46L104.87-6.4Q105.26-6.27 105.65-6.24 106.04-6.2 106.44-6.2L106.44-6.2Q107.41-6.2 108.32-6.47 109.22-6.74 110.01-7.24 110.81-7.74 111.43-8.46 112.05-9.18 112.44-10.06L112.44-10.06 117.32-5.15Q116.4-3.83 115.19-2.78 113.98-1.73 112.58-1 111.17-0.27 109.62 0.11 108.07 0.49 106.44 0.49L106.44 0.49Q103.68 0.49 101.25-0.54 98.82-1.56 97-3.39 95.18-5.22 94.13-7.75 93.08-10.28 93.08-13.31L93.08-13.31Q93.08-16.41 94.13-18.97 95.18-21.53 97-23.34 98.82-25.15 101.25-26.15 103.68-27.15 106.44-27.15L106.44-27.15Q108.07-27.15 109.63-26.76 111.2-26.37 112.6-25.63 114-24.9 115.22-23.84 116.45-22.78 117.37-21.46L117.37-21.46ZM100.53-9.84L108.29-20.14Q107.83-20.31 107.38-20.36 106.92-20.41 106.44-20.41L106.44-20.41Q105.07-20.41 103.86-19.91 102.65-19.41 101.76-18.48 100.87-17.55 100.36-16.25 99.84-14.94 99.84-13.31L99.84-13.31Q99.84-12.94 99.88-12.48 99.92-12.01 100-11.54 100.09-11.06 100.21-10.62 100.33-10.18 100.53-9.84L100.53-9.84ZM156.16-35.01L156.16-10.01Q156.16-7.84 155.35-5.92 154.53-4 153.1-2.58 151.67-1.15 149.76-0.33 147.84 0.49 145.67 0.49L145.67 0.49Q143.71 0.49 141.92-0.2 140.12-0.88 138.68-2.2L138.68-2.2Q137.24-0.88 135.44-0.2 133.63 0.49 131.68 0.49L131.68 0.49Q129.5 0.49 127.59-0.33 125.67-1.15 124.24-2.58 122.81-4 122-5.92 121.18-7.84 121.18-10.01L121.18-10.01 121.18-35.01 128.19-35.01 128.19-10.01Q128.19-9.28 128.45-8.63 128.72-7.98 129.2-7.51 129.68-7.03 130.31-6.76 130.94-6.49 131.68-6.49L131.68-6.49Q132.41-6.49 133.04-6.76 133.68-7.03 134.15-7.51 134.63-7.98 134.9-8.63 135.17-9.28 135.17-10.01L135.17-10.01 135.17-35.01 142.18-35.01 142.18-10.01Q142.18-9.28 142.44-8.63 142.71-7.98 143.19-7.51 143.66-7.03 144.3-6.76 144.93-6.49 145.67-6.49L145.67-6.49Q146.4-6.49 147.03-6.76 147.67-7.03 148.14-7.51 148.62-7.98 148.9-8.63 149.18-9.28 149.18-10.01L149.18-10.01 149.18-35.01 156.16-35.01ZM168.03-14.4L168.03 0 161.36 0 161.36-26.15 162.97-26.15 165.17-23.05Q166.78-24.51 168.83-25.31 170.88-26.1 173.08-26.1L173.08-26.1 178.96-26.1 178.96-19.46 173.08-19.46Q172.03-19.46 171.1-19.07 170.18-18.68 169.49-17.99 168.81-17.31 168.42-16.38 168.03-15.45 168.03-14.4L168.03-14.4ZM189.92-33.25L189.92-33.25Q189.92-32.32 189.57-31.52 189.22-30.71 188.61-30.11 188-29.52 187.18-29.16 186.36-28.81 185.43-28.81L185.43-28.81Q184.5-28.81 183.69-29.16 182.87-29.52 182.27-30.11 181.67-30.71 181.32-31.52 180.96-32.32 180.96-33.25L180.96-33.25Q180.96-34.16 181.32-34.97 181.67-35.79 182.27-36.39 182.87-36.99 183.69-37.34 184.5-37.7 185.43-37.7L185.43-37.7Q186.36-37.7 187.18-37.34 188-36.99 188.61-36.39 189.22-35.79 189.57-34.97 189.92-34.16 189.92-33.25ZM188.78-26.15L188.78 0 182.06 0 182.06-26.15 188.78-26.15ZM212.02 0L206.96 0Q204.55 0 202.42-0.92 200.3-1.83 198.7-3.43 197.1-5.03 196.18-7.15 195.27-9.28 195.27-11.69L195.27-11.69 195.27-19.46 192.02-19.46 192.02-26.1 195.27-26.1 195.27-36.55 201.91-36.55 201.91-26.1 212.02-26.1 212.02-19.46 201.91-19.46 201.91-11.69Q201.91-10.64 202.3-9.73 202.69-8.81 203.37-8.13 204.06-7.45 204.98-7.04 205.91-6.64 206.96-6.64L206.96-6.64 212.02-6.64 212.02 0ZM238.65-21.46L226.15-6.4Q226.54-6.27 226.93-6.24 227.32-6.2 227.71-6.2L227.71-6.2Q228.69-6.2 229.59-6.47 230.5-6.74 231.29-7.24 232.08-7.74 232.7-8.46 233.33-9.18 233.72-10.06L233.72-10.06 238.6-5.15Q237.67-3.83 236.46-2.78 235.26-1.73 233.85-1 232.45-0.27 230.9 0.11 229.35 0.49 227.71 0.49L227.71 0.49Q224.95 0.49 222.52-0.54 220.09-1.56 218.28-3.39 216.46-5.22 215.41-7.75 214.36-10.28 214.36-13.31L214.36-13.31Q214.36-16.41 215.41-18.97 216.46-21.53 218.28-23.34 220.09-25.15 222.52-26.15 224.95-27.15 227.71-27.15L227.71-27.15Q229.35-27.15 230.91-26.76 232.47-26.37 233.88-25.63 235.28-24.9 236.5-23.84 237.72-22.78 238.65-21.46L238.65-21.46ZM221.8-9.84L229.57-20.14Q229.1-20.31 228.65-20.36 228.2-20.41 227.71-20.41L227.71-20.41Q226.34-20.41 225.14-19.91 223.93-19.41 223.04-18.48 222.15-17.55 221.63-16.25 221.12-14.94 221.12-13.31L221.12-13.31Q221.12-12.94 221.16-12.48 221.19-12.01 221.28-11.54 221.36-11.06 221.49-10.62 221.61-10.18 221.8-9.84L221.8-9.84Z" opacity="1" transform="matrix(1,0,0,1,0,0)" fill="white" class="wordmark-text-0" id="SvgjsPath1337"></path></svg></g></svg></g></svg></g></svg></g><g><svg viewBox="0 0 82.35375366711216 82.35375366711217" height="82.35375366711217" width="82.35375366711216"><g><svg></svg></g><g id="SvgjsG1336"><svg viewBox="0 0 82.35375366711216 82.35375366711217" height="82.35375366711217" width="82.35375366711216"><g></g><g transform="matrix(1,0,0,1,25.14455725382848,16.47075073342243)"><svg viewBox="0 0 32.0646391594552 49.41225220026731" height="49.41225220026731" width="32.0646391594552"><g><svg xmlns="http://www.w3.org/2000/svg" xmlns:xlink="http://www.w3.org/1999/xlink" version="1.1" x="0" y="0" viewBox="19 2.9977762660242986 61 94.0022237339757" enable-background="new 0 0 99 99" xml:space="preserve" height="49.41225220026731" width="32.0646391594552" class="icon-z$-0" data-fill-palette-color="quaternary" id="SvgjsSvg1335"></svg></g></svg></g></svg></g></svg></g></svg></g><defs><mask></mask></defs></svg></g></mask><linearGradient x1="0" x2="1" y1="0.578" y2="0.595" id="fb5e59bb-6363-4689-8881-f386b6d98c81"><stop stop-color="#6ee2f5" offset="0"></stop><stop stop-color="#6454f0" offset="1"></stop></linearGradient><rect width="395.52" height="65.58705674267914" fill="url(#fb5e59bb-6363-4689-8881-f386b6d98c81)" mask="url(#dc70392d-452d-4ea5-ac93-2729b68e9d6d)" data-fill-palette-color="primary"></rect><mask id="7c0cbca7-d723-4a34-8650-826c9d95d703"><g id="SvgjsG1351"><svg viewBox="0 0 395.52 65.58705674267914" height="65.58705674267914" width="395.52"><g><svg viewBox="0 0 496.6308638945286 82.35375366711217" height="65.58705674267914" width="395.52"><g transform="matrix(1,0,0,1,101.11086389452862,1.450029912614383)"><svg viewBox="0 0 395.52 79.4536938418834" height="79.4536938418834" width="395.52"><g id="SvgjsG1350"><svg viewBox="0 0 395.52 79.4536938418834" height="79.4536938418834" width="395.52" id="SvgjsSvg1349"><g><svg viewBox="0 0 395.52 79.4536938418834" height="79.4536938418834" width="395.52"><g transform="matrix(1,0,0,1,0,0)"><svg width="395.52" viewBox="1.2 -37.7 237.45000000000002 47.71" height="79.4536938418834" data-palette-color="url(#fb5e59bb-6363-4689-8881-f386b6d98c81)"></svg></g></svg></g></svg></g></svg></g><g><svg viewBox="0 0 82.35375366711216 82.35375366711217" height="82.35375366711217" width="82.35375366711216"><g><svg></svg></g><g id="SvgjsG1348"><svg viewBox="0 0 82.35375366711216 82.35375366711217" height="82.35375366711217" width="82.35375366711216"><g><path transform="scale(0.82354,0.82354)" d="M30 100c-16.569 0-30-13.431-30-30v-40c0-16.569 13.431-30 30-30h40c16.569 0 30 13.431 30 30v40c0 16.569-13.431 30-30 30z" fill="white" fill-rule="nonzero" stroke="none" stroke-width="1" stroke-linecap="butt" stroke-linejoin="miter" stroke-miterlimit="10" stroke-dasharray="" stroke-dashoffset="0" font-family="none" font-weight="none" font-size="none" text-anchor="none" style="mix-blend-mode: normal"></path></g><g transform="matrix(1,0,0,1,25.14455725382848,16.47075073342243)"><svg viewBox="0 0 32.0646391594552 49.41225220026731" height="49.41225220026731" width="32.0646391594552"><g><svg xmlns="http://www.w3.org/2000/svg" xmlns:xlink="http://www.w3.org/1999/xlink" version="1.1" x="0" y="0" viewBox="19 2.9977762660242986 61 94.0022237339757" enable-background="new 0 0 99 99" xml:space="preserve" height="49.41225220026731" width="32.0646391594552" class="icon-z$-0" data-fill-palette-color="quaternary" id="SvgjsSvg1347"></svg></g></svg></g></svg></g></svg></g></svg></g><defs><mask></mask></defs><mask><g id="SvgjsG1346"><svg viewBox="0 0 395.52 65.58705674267914" height="65.58705674267914" width="395.52"><g><svg viewBox="0 0 496.6308638945286 82.35375366711217" height="65.58705674267914" width="395.52"><g transform="matrix(1,0,0,1,101.11086389452862,1.450029912614383)"><svg viewBox="0 0 395.52 79.4536938418834" height="79.4536938418834" width="395.52"><g id="SvgjsG1345"><svg viewBox="0 0 395.52 79.4536938418834" height="79.4536938418834" width="395.52" id="SvgjsSvg1344"><g><svg viewBox="0 0 395.52 79.4536938418834" height="79.4536938418834" width="395.52"><g transform="matrix(1,0,0,1,0,0)"><svg width="395.52" viewBox="1.2 -37.7 237.45000000000002 47.71" height="79.4536938418834" data-palette-color="url(#fb5e59bb-6363-4689-8881-f386b6d98c81)"></svg></g></svg></g></svg></g></svg></g><g><svg viewBox="0 0 82.35375366711216 82.35375366711217" height="82.35375366711217" width="82.35375366711216"><g><svg></svg></g><g id="SvgjsG1342"><svg viewBox="0 0 82.35375366711216 82.35375366711217" height="82.35375366711217" width="82.35375366711216"><g></g><g transform="matrix(1,0,0,1,25.14455725382848,16.47075073342243)"><svg viewBox="0 0 32.0646391594552 49.41225220026731" height="49.41225220026731" width="32.0646391594552"><g><svg xmlns="http://www.w3.org/2000/svg" xmlns:xlink="http://www.w3.org/1999/xlink" version="1.1" x="0" y="0" viewBox="19 2.9977762660242986 61 94.0022237339757" enable-background="new 0 0 99 99" xml:space="preserve" height="49.41225220026731" width="32.0646391594552" class="icon-z$-0" data-fill-palette-color="quaternary" id="SvgjsSvg1341"></svg></g></svg></g></svg></g></svg></g></svg></g><defs><mask></mask></defs></svg></g></mask></svg></g></mask><linearGradient x1="0" x2="1" y1="0.578" y2="0.595" id="eba1d19c-057b-4f9b-8478-2148b8b8e3c0"><stop stop-color="#6ee2f5" offset="0"></stop><stop stop-color="#6454f0" offset="1"></stop></linearGradient><rect width="395.52" height="65.58705674267914" fill="url(#eba1d19c-057b-4f9b-8478-2148b8b8e3c0)" mask="url(#7c0cbca7-d723-4a34-8650-826c9d95d703)" data-fill-palette-color="accent"></rect><mask id="95e8ac23-bcbc-463e-bd88-4a88b8b820a9"><g id="SvgjsG1394"><svg viewBox="0 0 395.52 65.58705674267914" height="65.58705674267914" width="395.52"><g><svg viewBox="0 0 496.6308638945286 82.35375366711217" height="65.58705674267914" width="395.52"><g transform="matrix(1,0,0,1,101.11086389452862,1.450029912614383)"><svg viewBox="0 0 395.52 79.4536938418834" height="79.4536938418834" width="395.52"><g id="SvgjsG1393"><svg viewBox="0 0 395.52 79.4536938418834" height="79.4536938418834" width="395.52" id="SvgjsSvg1392"><g><svg viewBox="0 0 395.52 79.4536938418834" height="79.4536938418834" width="395.52"><g transform="matrix(1,0,0,1,0,0)"><svg width="395.52" viewBox="1.2 -37.7 237.45000000000002 47.71" height="79.4536938418834" data-palette-color="url(#fb5e59bb-6363-4689-8881-f386b6d98c81)"></svg></g></svg></g></svg></g></svg></g><g><svg viewBox="0 0 82.35375366711216 82.35375366711217" height="82.35375366711217" width="82.35375366711216"><g><svg></svg></g><g id="SvgjsG1391"><svg viewBox="0 0 82.35375366711216 82.35375366711217" height="82.35375366711217" width="82.35375366711216"><g></g><g transform="matrix(1,0,0,1,25.14455725382848,16.47075073342243)"><svg viewBox="0 0 32.0646391594552 49.41225220026731" height="49.41225220026731" width="32.0646391594552"><g><svg xmlns="http://www.w3.org/2000/svg" xmlns:xlink="http://www.w3.org/1999/xlink" version="1.1" x="0" y="0" viewBox="19 2.9977762660242986 61 94.0022237339757" enable-background="new 0 0 99 99" xml:space="preserve" height="49.41225220026731" width="32.0646391594552" class="icon-z$-0" data-fill-palette-color="quaternary" id="SvgjsSvg1390"><path fill-rule="evenodd" clip-rule="evenodd" d="M26.49 27.36c-3.74 0-7.49 2.5-7.49 6.18v57.08c0 3.69 4.06 6.38 7.79 6.38h46.55c3.73 0 6.66-2.7 6.66-6.38V33.55c0-3.68-3.23-6.19-6.971-6.19L50.58 27.37l4.84 19.93c0 0-4.84 12.3-4.72 12.479 0.12 0.191-10.96-7.67-10.96-7.67L33.08 27.37 26.49 27.36zM32.02 13.63l9.11 33.56 11.33-3-9.11-33.56L32.02 13.63zM35.26 3.18c-1.88 0.5-5.26 3-4.76 4.85l0.89 3.51 11.33-3-0.89-3.5C41.33 3.18 37.14 2.68 35.26 3.18zM41.74 49.42l8.06 6.79 3.271-9.78L41.74 49.42z" fill="white"></path></svg></g></svg></g></svg></g></svg></g></svg></g><defs><mask></mask></defs><mask><g id="SvgjsG1389"><svg viewBox="0 0 395.52 65.58705674267914" height="65.58705674267914" width="395.52"><g><svg viewBox="0 0 496.6308638945286 82.35375366711217" height="65.58705674267914" width="395.52"><g transform="matrix(1,0,0,1,101.11086389452862,1.450029912614383)"><svg viewBox="0 0 395.52 79.4536938418834" height="79.4536938418834" width="395.52"><g id="SvgjsG1388"><svg viewBox="0 0 395.52 79.4536938418834" height="79.4536938418834" width="395.52" id="SvgjsSvg1387"><g><svg viewBox="0 0 395.52 79.4536938418834" height="79.4536938418834" width="395.52"><g transform="matrix(1,0,0,1,0,0)"><svg width="395.52" viewBox="1.2 -37.7 237.45000000000002 47.71" height="79.4536938418834" data-palette-color="url(#fb5e59bb-6363-4689-8881-f386b6d98c81)"></svg></g></svg></g></svg></g></svg></g><g><svg viewBox="0 0 82.35375366711216 82.35375366711217" height="82.35375366711217" width="82.35375366711216"><g><svg></svg></g><g id="SvgjsG1385"><svg viewBox="0 0 82.35375366711216 82.35375366711217" height="82.35375366711217" width="82.35375366711216"><g></g><g transform="matrix(1,0,0,1,25.14455725382848,16.47075073342243)"><svg viewBox="0 0 32.0646391594552 49.41225220026731" height="49.41225220026731" width="32.0646391594552"><g><svg xmlns="http://www.w3.org/2000/svg" xmlns:xlink="http://www.w3.org/1999/xlink" version="1.1" x="0" y="0" viewBox="19 2.9977762660242986 61 94.0022237339757" enable-background="new 0 0 99 99" xml:space="preserve" height="49.41225220026731" width="32.0646391594552" class="icon-z$-0" data-fill-palette-color="quaternary" id="SvgjsSvg1384"></svg></g></svg></g></svg></g></svg></g></svg></g><defs><mask></mask></defs></svg></g></mask><mask><g id="SvgjsG1383"><svg viewBox="0 0 395.52 65.58705674267914" height="65.58705674267914" width="395.52"><g><svg viewBox="0 0 496.6308638945286 82.35375366711217" height="65.58705674267914" width="395.52"><g transform="matrix(1,0,0,1,101.11086389452862,1.450029912614383)"><svg viewBox="0 0 395.52 79.4536938418834" height="79.4536938418834" width="395.52"><g id="SvgjsG1382"><svg viewBox="0 0 395.52 79.4536938418834" height="79.4536938418834" width="395.52" id="SvgjsSvg1381"><g><svg viewBox="0 0 395.52 79.4536938418834" height="79.4536938418834" width="395.52"><g transform="matrix(1,0,0,1,0,0)"><svg width="395.52" viewBox="1.2 -37.7 237.45000000000002 47.71" height="79.4536938418834" data-palette-color="url(#fb5e59bb-6363-4689-8881-f386b6d98c81)"></svg></g></svg></g></svg></g></svg></g><g><svg viewBox="0 0 82.35375366711216 82.35375366711217" height="82.35375366711217" width="82.35375366711216"><g><svg></svg></g><g id="SvgjsG1380"><svg viewBox="0 0 82.35375366711216 82.35375366711217" height="82.35375366711217" width="82.35375366711216"><g></g><g transform="matrix(1,0,0,1,25.14455725382848,16.47075073342243)"><svg viewBox="0 0 32.0646391594552 49.41225220026731" height="49.41225220026731" width="32.0646391594552"><g><svg xmlns="http://www.w3.org/2000/svg" xmlns:xlink="http://www.w3.org/1999/xlink" version="1.1" x="0" y="0" viewBox="19 2.9977762660242986 61 94.0022237339757" enable-background="new 0 0 99 99" xml:space="preserve" height="49.41225220026731" width="32.0646391594552" class="icon-z$-0" data-fill-palette-color="quaternary" id="SvgjsSvg1379"></svg></g></svg></g></svg></g></svg></g></svg></g><defs><mask></mask></defs><mask><g id="SvgjsG1378"><svg viewBox="0 0 395.52 65.58705674267914" height="65.58705674267914" width="395.52"><g><svg viewBox="0 0 496.6308638945286 82.35375366711217" height="65.58705674267914" width="395.52"><g transform="matrix(1,0,0,1,101.11086389452862,1.450029912614383)"><svg viewBox="0 0 395.52 79.4536938418834" height="79.4536938418834" width="395.52"><g id="SvgjsG1377"><svg viewBox="0 0 395.52 79.4536938418834" height="79.4536938418834" width="395.52" id="SvgjsSvg1376"><g><svg viewBox="0 0 395.52 79.4536938418834" height="79.4536938418834" width="395.52"><g transform="matrix(1,0,0,1,0,0)"><svg width="395.52" viewBox="1.2 -37.7 237.45000000000002 47.71" height="79.4536938418834" data-palette-color="url(#fb5e59bb-6363-4689-8881-f386b6d98c81)"></svg></g></svg></g></svg></g></svg></g><g><svg viewBox="0 0 82.35375366711216 82.35375366711217" height="82.35375366711217" width="82.35375366711216"><g><svg></svg></g><g id="SvgjsG1375"><svg viewBox="0 0 82.35375366711216 82.35375366711217" height="82.35375366711217" width="82.35375366711216"><g></g><g transform="matrix(1,0,0,1,25.14455725382848,16.47075073342243)"><svg viewBox="0 0 32.0646391594552 49.41225220026731" height="49.41225220026731" width="32.0646391594552"><g><svg xmlns="http://www.w3.org/2000/svg" xmlns:xlink="http://www.w3.org/1999/xlink" version="1.1" x="0" y="0" viewBox="19 2.9977762660242986 61 94.0022237339757" enable-background="new 0 0 99 99" xml:space="preserve" height="49.41225220026731" width="32.0646391594552" class="icon-z$-0" data-fill-palette-color="quaternary" id="SvgjsSvg1374"></svg></g></svg></g></svg></g></svg></g></svg></g><defs><mask></mask></defs></svg></g></mask></svg></g></mask></svg></g></mask><linearGradient x1="0.054" x2="0.941" y1="0.5" y2="0.5" id="c1d1b1bd-694d-4ec8-a7f8-8b3062cf4c85"><stop stop-color="#0f3054" offset="0"></stop><stop stop-color="#3b8dcb" offset="0.498"></stop><stop stop-color="#0f3054" offset="1"></stop></linearGradient><rect width="395.52" height="65.58705674267914" fill="url(#c1d1b1bd-694d-4ec8-a7f8-8b3062cf4c85)" mask="url(#95e8ac23-bcbc-463e-bd88-4a88b8b820a9)" data-fill-palette-color="quaternary"></rect></svg><rect width="395.52" height="65.58705674267914" fill="none" stroke="none" visibility="hidden"></rect></g></svg></g></svg>